<svg viewBox="0 0 480 96" fill="none" xmlns="http://www.w3.org/2000/svg">
<g clip-path="url(#clip0_1419_368)">
<rect width="480" height="96" fill="#141414"/>
<rect x="12" y="12" width="72" height="72" rx="16" fill="#DE4208"/>
<rect x="194" y="12" width="72" height="72" rx="16" fill="#2E2E2E"/>
<rect x="278" y="12" width="72" height="72" rx="16" fill="#2E2E2E"/>
<rect x="362" y="12" width="72" height="72" rx="16" fill="#2E2E2E"/>
<rect x="446" y="12" width="72" height="72" rx="16" fill="url(#paint0_linear_1419_368)"/>
<circle cx="482" cy="48" r="27" fill="url(#paint1_linear_1419_368)"/>
<path d="M50 53.5C50 52.1193 51.1193 51 52.5 51C62.165 51 70 58.835 70 68.5C70 69.8807 68.8807 71 67.5 71H53C51.3431 71 50 69.6569 50 68V53.5Z" fill="white"/>
<path d="M50 44.5C50 45.8807 51.1193 47 52.5 47C62.165 47 70 39.165 70 29.5C70 28.1193 68.8807 27 67.5 27H53C51.3431 27 50 28.3431 50 30V44.5Z" fill="white"/>
<path d="M26 54C26 52.3431 27.3431 51 29 51H43C44.6569 51 46 52.3431 46 54V68C46 69.6569 44.6569 71 43 71H29C27.3431 71 26 69.6569 26 68V54Z" fill="white"/>
<path d="M26 30C26 28.3431 27.3431 27 29 27H43C44.6569 27 46 28.3431 46 30V44C46 45.6569 44.6569 47 43 47H29C27.3431 47 26 45.6569 26 44V30Z" fill="white"/>
<path d="M96 47H182" stroke="url(#paint2_linear_1419_368)" stroke-width="2" stroke-linecap="round" stroke-dasharray="0.01 4"/>
<circle cx="398" cy="48" r="27" fill="#505050"/>
<path d="M408.91 55.1816C408.358 55.1816 407.91 54.7339 407.91 54.1816V33C407.91 32.4477 407.462 32 406.91 32H395.273C394.721 32 394.273 32.4477 394.273 33V48.7203C394.273 48.9316 394.34 49.1375 394.465 49.3084L397.581 53.5935C398.062 54.2544 397.59 55.1816 396.772 55.1816H383C382.448 55.1816 382 55.6294 382 56.1816V60.9998C382 61.5521 382.448 61.9998 383 61.9998H411C411.552 61.9998 412 61.5521 412 60.9998V56.1816C412 55.6294 411.552 55.1816 411 55.1816H408.91Z" fill="white"/>
<circle cx="314" cy="48" r="27" fill="#505050"/>
<path d="M316.889 49.5476C316.889 49.1237 317.159 48.7511 317.546 48.5775C320.565 47.2226 322.667 44.1902 322.667 40.6667C322.667 35.8802 318.787 32 314.001 32C309.214 32 305.334 35.8802 305.334 40.6667C305.334 44.1899 307.436 47.2221 310.455 48.5772C310.842 48.7508 311.111 49.1234 311.111 49.5472V55.5547C311.111 56.107 310.664 56.5547 310.111 56.5547H302C301.448 56.5547 301 57.0024 301 57.5547V61.3325C301 61.8848 301.448 62.3325 302 62.3325H326C326.552 62.3325 327 61.8848 327 61.3325V57.5547C327 57.0024 326.552 56.5547 326 56.5547H317.889C317.337 56.5547 316.889 56.107 316.889 55.5547V49.5476Z" fill="white"/>
<circle cx="230" cy="48" r="27" fill="#505050"/>
<circle cx="230" cy="48" r="6" fill="white"/>
<path d="M230 30C232.758 30 235.371 30.6209 237.707 31.7295C237.261 32.3746 237 33.1567 237 34C237 36.2091 238.791 38 241 38C242.185 38 243.249 37.4839 243.981 36.665C246.493 39.7597 248 43.7035 248 48C248 57.9411 239.941 66 230 66C220.059 66 212 57.9411 212 48C212 38.0589 220.059 30 230 30ZM230 37C223.925 37 219 41.9249 219 48C219 54.0751 223.925 59 230 59C236.075 59 241 54.0751 241 48C241 41.9249 236.075 37 230 37Z" fill="white"/>
</g>
<defs>
<linearGradient id="paint0_linear_1419_368" x1="446" y1="48" x2="518" y2="48" gradientUnits="userSpaceOnUse">
<stop stop-color="#2E2E2E"/>
<stop offset="1"/>
</linearGradient>
<linearGradient id="paint1_linear_1419_368" x1="455" y1="48" x2="509" y2="48" gradientUnits="userSpaceOnUse">
<stop stop-color="#505050"/>
<stop offset="1" stop-color="#141414"/>
</linearGradient>
<linearGradient id="paint2_linear_1419_368" x1="96" y1="47.5" x2="182" y2="47.5" gradientUnits="userSpaceOnUse">
<stop stop-color="#DE4208"/>
<stop offset="1" stop-color="#505050"/>
</linearGradient>
<clipPath id="clip0_1419_368">
<rect width="480" height="96" fill="white"/>
</clipPath>
</defs>
</svg>
