<svg viewBox="0 0 72 72" fill="none" xmlns="http://www.w3.org/2000/svg">
<g clip-path="url(#clip0_1675_365)">
<rect width="72" height="72" rx="16" fill="#2E2E2E"/>
<circle cx="36" cy="36" r="27" fill="#505050"/>
<path d="M26 36.0996C28.2823 36.5628 30 38.581 30 41C30 43.4189 28.2822 45.4361 26 45.8994V51H24V45.8994C21.7178 45.4361 20 43.4189 20 41C20 38.581 21.7177 36.5628 24 36.0996V21H26V36.0996Z" fill="white"/>
<path d="M37 26.0996C39.2823 26.5628 41 28.581 41 31C41 33.4189 39.2822 35.4361 37 35.8994V51H35V35.8994C32.7178 35.4361 31 33.4189 31 31C31 28.581 32.7177 26.5628 35 26.0996V21H37V26.0996Z" fill="white"/>
<path d="M48 36.0996C50.2823 36.5628 52 38.581 52 41C52 43.4189 50.2822 45.4361 48 45.8994V51H46V45.8994C43.7178 45.4361 42 43.4189 42 41C42 38.581 43.7177 36.5628 46 36.0996V21H48V36.0996Z" fill="white"/>
</g>
<defs>
<clipPath id="clip0_1675_365">
<rect width="72" height="72" fill="white"/>
</clipPath>
</defs>
</svg>
