<svg viewBox="0 0 16 16" fill="none" xmlns="http://www.w3.org/2000/svg">
<g clip-path="url(#clip0_2366_767)">
<path d="M11.3052 3.30384C8.71175 3.30384 6.60938 5.40634 6.60938 7.99971C6.60938 10.5932 8.71187 12.6951 11.3052 12.6951C13.8982 12.6951 16.0006 10.5932 16.0006 7.99959C16.0006 5.40596 13.8981 3.30384 11.3052 3.30384ZM11.3052 10.2602C10.0562 10.2602 9.04425 9.24821 9.04425 7.99971C9.04425 6.75071 10.0562 5.73871 11.3052 5.73871C12.5537 5.73871 13.5658 6.75071 13.5658 7.99971C13.5658 9.24821 12.5537 10.2602 11.3052 10.2602Z" fill="#FFB300"/>
<path d="M6.30963 9.58344V9.58244C6.09956 9.79755 5.84854 9.96843 5.57139 10.085C5.29424 10.2016 4.99655 10.2615 4.69588 10.2612C3.44688 10.2612 2.43488 9.24906 2.43488 8.00056C2.43488 6.75156 3.44688 5.73956 4.69588 5.73956C5.33238 5.73956 5.90663 6.00331 6.3175 6.42694L7.62175 4.33144C6.81887 3.69056 5.80288 3.30469 4.69588 3.30469C2.10238 3.30469 0 5.40719 0 8.00056C0 10.5941 2.1025 12.6959 4.69588 12.6959C5.796 12.6959 6.80613 12.3146 7.60663 11.6809L6.30963 9.58344Z" fill="#FFB300"/>
<path d="M2.43488 7.99967C2.43488 7.37792 2.68613 6.81542 3.09188 6.40655L1.40313 4.6543C0.53775 5.50567 0 6.68955 0 7.99967C0 9.30342 0.53225 10.4829 1.3905 11.3339L3.10663 9.60717C2.89358 9.39721 2.72447 9.14694 2.60914 8.87096C2.49381 8.59497 2.43457 8.29879 2.43488 7.99967ZM12.915 6.41392C13.3321 6.8363 13.5657 7.40618 13.5651 7.9998C13.5651 9.2483 12.5531 10.2603 11.3046 10.2603C10.6691 10.2603 10.0963 9.9978 9.6855 9.5758L7.94625 11.2787C8.79912 12.1517 9.9875 12.6952 11.3045 12.6952C13.8976 12.6952 16 10.5933 16 7.99967C16 6.7178 15.4854 5.55792 14.6536 4.71092L12.915 6.41392Z" fill="#F57A00"/>
</g>
<defs>
<clipPath id="clip0_2366_767">
<rect width="16" height="16" fill="white"/>
</clipPath>
</defs>
</svg>
