<svg viewBox="0 0 72 72" fill="none" xmlns="http://www.w3.org/2000/svg">
<g clip-path="url(#clip0_1675_402)">
<rect width="72" height="72" rx="16" fill="#DE4208"/>
<path d="M50.28 27C51.797 27 53.2519 27.6026 54.3246 28.6753C55.3974 29.7481 56 31.203 56 32.72V40.28C56 41.0312 55.852 41.775 55.5646 42.4689C55.2771 43.1629 54.8558 43.7935 54.3246 44.3246C53.7935 44.8558 53.1629 45.2771 52.4689 45.5646C51.775 45.852 51.0312 46 50.28 46H36C36 46.78 36.64 47.92 37.42 47.92H46V51.28C46 52.797 45.3974 54.2519 44.3246 55.3246C43.2519 56.3974 41.797 57 40.28 57H31.72C30.203 57 28.7481 56.3974 27.6753 55.3246C26.6026 54.2519 26 52.797 26 51.28V43.78C26 43.0298 26.1481 42.2869 26.4358 41.5941C26.7235 40.9012 27.1451 40.272 27.6766 39.7424C28.208 39.2128 28.8387 38.7934 29.5326 38.5081C30.2264 38.2229 30.9698 38.0774 31.72 38.08H42.22C42.9702 38.08 43.7131 37.9319 44.4059 37.6442C45.0988 37.3565 45.728 36.9349 46.2576 36.4034C46.7872 35.872 47.2066 35.2413 47.4919 34.5474C47.7771 33.8536 47.9226 33.1102 47.92 32.36V27H50.28ZM41.72 50.58C40.92 50.58 40.28 51.18 40.28 52.36C40.28 53.54 40.92 53.78 41.72 53.78C41.9065 53.78 42.0911 53.7433 42.2634 53.6719C42.4357 53.6005 42.5922 53.4959 42.7241 53.3641C42.856 53.2322 42.9605 53.0757 43.0319 52.9034C43.1033 52.7311 43.14 52.5465 43.14 52.36C43.14 51.18 42.5 50.58 41.72 50.58ZM21.72 47C20.203 47 18.7481 46.3974 17.6753 45.3246C16.6026 44.2519 16 42.797 16 41.28V33.72C16 32.9688 16.148 32.225 16.4354 31.5311C16.7229 30.8371 17.1442 30.2065 17.6753 29.6753C18.7481 28.6026 20.203 28 21.72 28H36C36 27.22 35.36 26.08 34.58 26.08H26V22.72C26 21.203 26.6026 19.7481 27.6753 18.6753C28.7481 17.6026 30.203 17 31.72 17H40.28C41.0312 17 41.775 17.148 42.4689 17.4354C43.1629 17.7229 43.7935 18.1442 44.3246 18.6753C44.8558 19.2065 45.2771 19.8371 45.5646 20.5311C45.852 21.225 46 21.9688 46 22.72V30.22C46 30.9702 45.8519 31.7131 45.5642 32.4059C45.2765 33.0988 44.8549 33.728 44.3234 34.2576C43.792 34.7872 43.1613 35.2066 42.4674 35.4919C41.7736 35.7771 41.0302 35.9226 40.28 35.92H29.78C29.0298 35.92 28.2869 36.0681 27.5941 36.3558C26.9012 36.6435 26.272 37.0651 25.7424 37.5966C25.2128 38.128 24.7934 38.7587 24.5081 39.4526C24.2229 40.1464 24.0774 40.8898 24.08 41.64V47H21.72ZM30.28 23.42C31.08 23.42 31.72 22.82 31.72 21.64C31.72 20.46 31.08 20.22 30.28 20.22C29.5 20.22 28.86 20.46 28.86 21.64C28.86 22.82 29.5 23.42 30.28 23.42Z" fill="white"/>
</g>
<defs>
<clipPath id="clip0_1675_402">
<rect width="72" height="72" fill="white"/>
</clipPath>
</defs>
</svg>
