<svg viewBox="0 0 72 72" fill="none" xmlns="http://www.w3.org/2000/svg">
<g clip-path="url(#clip0_1675_410)">
<rect width="72" height="72" rx="16" fill="#DE4208"/>
<path d="M55.8 35.4L54 34.4V34L55.4 32.6C55.6 32.4 55.6 32 55.4 31.8L55.2 31.6L53.4 31C53.4 30.8 53.4 30.6 53.2 30.6L54.4 29C54.6 28.8 54.6 28.4 54.2 28.2C54.2 28.2 54 28.2 54 28L52 27.6C52 27.4 51.8 27.4 51.8 27.2L52.6 25.4V24.8C52.4 24.6 52.2 24.6 52 24.6H50C50 24.6 50 24.4 49.8 24.4L50.2 22.4C50.2 22 50 21.8 49.8 21.8H49.6L47.6 22.2C47.6 22 47.4 22 47.2 21.8V19.8C47.2 19.4 47 19.2 46.6 19.2H46.4L44.6 20H44.4L44 18C44 17.6 43.6 17.4 43.4 17.6H43.2L41.6 18.8C41.4 18.8 41.2 18.8 41.2 18.6L40.6 16.8C40.4 16.6 40.2 16.4 39.8 16.4C39.8 16.4 39.6 16.4 39.6 16.6L38 18H37.6L36.6 16.4C36.4 16 36 16 35.6 16L35.4 16.2L34.4 18H34L32.6 16.6C32.4 16.4 32 16.4 31.8 16.6L31.6 16.8L31 18.6C30.8 18.6 30.6 18.6 30.6 18.8L29 17.6C28.6 17.4 28.2 17.4 28 17.8V18L27.6 20C27.6 20 27.4 20 27.2 20.2L25.4 19.4C25.2 19.2 24.8 19.4 24.6 19.6V21.8C24.6 22 24.4 22 24.4 22.2L22.4 21.8C22 21.6 21.8 21.8 21.8 22.2V22.4L22.2 24.4C22 24.4 22 24.6 21.8 24.6H19.8C19.4 24.6 19.2 24.8 19.2 25.2V25.4L20 27.2V27.6L18 28C17.6 28 17.4 28.4 17.4 28.6V28.8L18.6 30.4C18.6 30.6 18.6 30.8 18.4 30.8L16.8 31.6C16.6 31.8 16.4 32 16.4 32.4C16.4 32.4 16.4 32.6 16.6 32.6L18 34V34.4L16.4 35.4C16 35.6 16 36 16 36.2L16.2 36.4L18 37.6V38L16.6 39.4C16.4 39.6 16.4 40 16.6 40.2L16.8 40.4L18.6 41C18.6 41.2 18.6 41.4 18.8 41.4L17.6 43C17.4 43.2 17.4 43.6 17.8 43.8C17.8 43.8 18 43.8 18 44L20 44.4C20 44.6 20.2 44.6 20.2 44.8L19.4 46.6C19.2 46.8 19.4 47.2 19.6 47.4H21.8C22 47.4 22 47.6 22.2 47.6L21.8 49.6C21.8 50 22 50.2 22.2 50.2H22.4L24.4 49.8C24.4 50 24.6 50 24.8 50.2V52.2C24.8 52.6 25 52.8 25.4 52.8H25.6L27.4 52H27.6L28 54C28 54.4 28.4 54.6 28.6 54.4H28.8L30.4 53.2C30.6 53.2 30.8 53.2 30.8 53.4L31.4 55.2C31.6 55.4 31.8 55.6 32.2 55.6C32.2 55.6 32.4 55.6 32.4 55.4L34 54H34.4L35.4 55.6C35.6 55.8 36 56 36.2 55.8L36.4 55.6L37.4 54H37.8L39.2 55.4C39.4 55.6 39.8 55.6 40 55.4L40.2 55.2L40.8 53.4C41 53.4 41.2 53.4 41.2 53.2L42.8 54.4C43 54.6 43.4 54.6 43.6 54.2C43.6 54.2 43.6 54 43.8 54L44.2 52C44.4 52 44.4 51.8 44.6 51.8L46.4 52.6C46.6 52.8 47 52.6 47.2 52.4V50.2L47.6 49.8L49.6 50.2C50 50.2 50.2 50 50.2 49.8V49.6L49.8 47.6L50.2 47.2H52.2C52.6 47.2 52.8 47 52.8 46.6V46.4L52 44.6C52 44.4 52.2 44.4 52.2 44.2L54.2 43.8C54.6 43.8 54.8 43.4 54.6 43.2V43L53.4 41.4L53.6 41L55.4 40.4C55.6 40.2 55.8 40 55.8 39.6C55.8 39.6 55.8 39.4 55.6 39.4L54 38V37.6L55.6 36.6C56 36.4 56 36 55.8 35.4C55.8 35.6 55.8 35.6 55.8 35.4ZM44.4 49.4C43.8 49.2 43.4 48.6 43.4 48C43.6 47.4 44.2 47 44.8 47C45.4 47.2 45.8 47.8 45.8 48.4C45.8 49.2 45.2 49.6 44.4 49.4ZM44 45.6C43.4 45.4 42.8 45.8 42.8 46.4L42 49.2C40.2 50 38.2 50.4 36 50.4C33.8 50.4 31.8 50 29.8 49L29.2 46.2C29 45.6 28.6 45.2 28 45.4L25.6 46C25.2 45.6 24.8 45 24.4 44.6H36.4C36.6 44.6 36.6 44.6 36.6 44.4V40.2C36.6 40 36.6 40 36.4 40H33V37.4H36.8C37.2 37.4 38.6 37.4 39.2 39.4C39.4 40 39.6 42 40 42.6C40.2 43.2 41.2 44.6 42.2 44.6H48.4C48 45.2 47.6 45.6 47 46.2L44 45.6ZM27.4 49.4C26.8 49.6 26.2 49.2 26 48.4C25.8 47.8 26.2 47.2 27 47C27.8 46.8 28.2 47.2 28.4 48C28.4 48.6 28 49.2 27.4 49.4ZM22.8 31C23 31.6 22.8 32.4 22.2 32.6C21.6 32.8 20.8 32.6 20.6 32C20.4 31.4 20.6 30.6 21.2 30.4C22 30.2 22.6 30.4 22.8 31ZM21.4 34.2L24 33.2C24.6 33 24.8 32.4 24.6 31.8L24 30.6H26V40H22C21.4 38 21.2 36.2 21.4 34.2ZM32.6 33.4V30.6H37.6C37.8 30.6 39.4 30.8 39.4 32C39.4 33 38.2 33.4 37.2 33.4H32.6ZM50.6 35.8V36.8H49C48.8 36.8 48.8 36.8 48.8 37V37.6C48.8 39.2 47.8 39.6 47 39.6C46.2 39.6 45.4 39.2 45.2 38.8C44.8 36.2 44 35.8 42.8 34.8C44.2 33.8 45.8 32.4 45.8 30.6C45.8 28.6 44.4 27.4 43.6 26.8C42.2 26 40.8 25.8 40.4 25.8H25.2C27.4 23.4 30.2 21.8 33.4 21.2L35.2 23.2C35.6 23.6 36.2 23.6 36.8 23.2L38.8 21.2C43 22 46.6 24.6 48.8 28.4L47.4 31.6C47.2 32.2 47.4 32.8 48 33L50.6 34.2V35.8ZM35.2 19.8C35.6 19.4 36.4 19.4 36.8 19.8C37.2 20.2 37.2 21 36.8 21.4C36.2 22 35.6 22 35 21.4C34.6 21 34.8 20.4 35.2 19.8ZM49 31C49.2 30.4 50 30.2 50.6 30.4C51.2 30.6 51.4 31.4 51.2 32C51 32.6 50.2 32.8 49.6 32.6C49 32.4 48.8 31.6 49 31Z" fill="white"/>
</g>
<defs>
<clipPath id="clip0_1675_410">
<rect width="72" height="72" fill="white"/>
</clipPath>
</defs>
</svg>
