<svg viewBox="0 0 22 20" fill="none" xmlns="http://www.w3.org/2000/svg">
<g clip-path="url(#clip0_841_57)">
<path d="M5.21248 11.6773C1.30699 15.6521 -0.693514 18.6626 0.218028 19.675C1.14024 20.6992 4.39098 19 8.77658 15.5077C8.35555 15.3477 7.95754 15.1411 7.58889 14.894C4.86748 17.1509 3.57656 17.8201 3.01055 17.1915C2.44678 16.5654 3.23127 15.3503 5.73201 12.8944C5.51563 12.5131 5.34044 12.1054 5.21248 11.6773Z" fill="white"/>
<path d="M13.1397 4.52496C13.553 4.69673 13.9425 4.91406 14.3021 5.17068C17.0898 2.85996 18.4338 2.15702 19.0043 2.79062C19.577 3.42661 18.7212 4.68834 16.1044 7.23333C16.3117 7.627 16.476 8.04694 16.5907 8.48685C20.6255 4.41392 22.7093 1.32049 21.7866 0.295745C20.8585 -0.734991 17.5691 0.988976 13.1397 4.52496Z" fill="white"/>
<path d="M13.991 19.7305H11.6419V8.46769H13.991V14.2117H14.5059L16.9194 11.4443H19.6546L17.8204 13.6325C17.1285 14.5174 16.6941 14.8714 16.1792 15.0806V15.6276C16.7746 15.869 17.2573 16.3034 17.9008 17.1883L19.7994 19.7305H17.0481L14.5059 16.4643H13.991V19.7305Z" fill="white"/>
</g>
<defs>
<clipPath id="clip0_841_57">
<rect width="22" height="20" fill="white"/>
</clipPath>
</defs>
</svg>
