<svg viewBox="0 0 96 20" fill="none" xmlns="http://www.w3.org/2000/svg">
<g clip-path="url(#clip0_841_41)">
<path d="M5.21248 11.6773C1.30699 15.6521 -0.693514 18.6626 0.218028 19.675C1.14024 20.6992 4.39098 19 8.77658 15.5077C8.35555 15.3477 7.95754 15.1411 7.58889 14.894C4.86748 17.1509 3.57656 17.8201 3.01055 17.1915C2.44678 16.5654 3.23127 15.3503 5.73201 12.8944C5.51563 12.5131 5.34044 12.1054 5.21248 11.6773Z" fill="white"/>
<path d="M13.1397 4.52496C13.553 4.69673 13.9425 4.91406 14.3021 5.17068C17.0898 2.85996 18.4338 2.15702 19.0043 2.79062C19.577 3.42661 18.7212 4.68834 16.1044 7.23332C16.3117 7.627 16.476 8.04694 16.5907 8.48685C20.6255 4.41392 22.7093 1.32049 21.7866 0.295745C20.8585 -0.734991 17.5691 0.988976 13.1397 4.52496Z" fill="white"/>
<path d="M13.991 19.7305H11.6419V8.46769H13.991V14.2117H14.5059L16.9194 11.4443H19.6546L17.8204 13.6325C17.1285 14.5174 16.6941 14.8714 16.1792 15.0806V15.6276C16.7746 15.869 17.2573 16.3034 17.9008 17.1883L19.7994 19.7305H17.0481L14.5059 16.4643H13.991V19.7305Z" fill="white"/>
<path d="M24.3576 16.1264H19.6594V14.1795H24.3576V16.1264Z" fill="white"/>
<path d="M29.0916 19.9558C26.9678 19.9558 25.1979 18.9904 25.2301 17.124H27.4827C27.547 17.9767 27.8366 18.3629 29.1882 18.3629C30.4432 18.3629 30.6845 18.025 30.6845 17.4136C30.6845 16.9792 30.4593 16.7539 29.6548 16.6091L27.8045 16.2712C26.3242 15.9977 25.391 15.2415 25.391 13.9865C25.391 12.3775 26.8391 11.219 29.1238 11.219C31.0868 11.219 32.8405 12.1844 32.8084 13.9704H30.5558C30.4914 13.1659 30.2018 12.7958 29.0273 12.7958C27.8527 12.7958 27.6436 13.1337 27.6275 13.6647C27.6275 14.0991 27.8045 14.3565 28.5929 14.5013L30.4271 14.8231C31.9556 15.0967 32.9371 15.8529 32.9371 17.1401C32.9371 18.749 31.4729 19.9558 29.0916 19.9558Z" fill="white"/>
<path d="M37.7336 19.9558C35.1753 19.9558 33.4859 18.5238 33.4859 15.5794C33.4859 12.7315 35.2075 11.219 37.7497 11.219C39.8896 11.219 41.5951 12.2166 41.6917 14.4209H39.3747C39.2943 13.3107 38.9242 13.0211 37.7175 13.0211C36.3016 13.0211 35.9315 13.2946 35.9315 15.5794C35.9315 17.8641 36.3016 18.1537 37.7175 18.1537C38.9242 18.1537 39.2943 17.8641 39.3747 16.7378H41.6917C41.5951 18.9421 39.8896 19.9558 37.7336 19.9558Z" fill="white"/>
<path d="M44.979 19.9075C43.3378 19.9075 42.1794 18.9421 42.1794 17.2688C42.1794 15.9011 43.016 14.9519 44.979 14.807L47.6982 14.614V13.9704C47.6982 13.0694 47.2959 12.8763 46.2501 12.8763C45.0594 12.8763 44.7216 13.182 44.6894 14.0508H42.3885C42.3725 12.3292 43.9493 11.219 46.3466 11.219C48.0843 11.219 49.9668 11.7983 49.9668 14.2117V19.7305H47.7786L47.7464 19.0065H47.2316C46.8615 19.5857 45.9283 19.9075 44.979 19.9075ZM46.0409 18.2663C47.3925 18.2663 47.6982 17.8641 47.6982 16.7539V16.046L45.6065 16.2229C44.7216 16.3034 44.5285 16.5126 44.5285 17.2527C44.5285 18.0733 44.9146 18.2663 46.0409 18.2663Z" fill="white"/>
<path d="M53.6717 19.7305H51.3226V8.46769H53.6717V19.7305Z" fill="white"/>
<path d="M62.8859 16.3034H56.9648C56.9166 17.7193 57.4314 18.2181 58.8473 18.2181C59.9093 18.2181 60.4563 17.9606 60.5529 17.0596H62.8215C62.6445 18.926 60.9873 19.9558 58.8634 19.9558C56.3534 19.9558 54.664 18.4755 54.664 15.6276C54.664 12.8119 56.4821 11.219 58.9117 11.219C61.5021 11.219 62.9502 12.9567 62.9502 15.338C62.9502 15.6598 62.9341 15.9655 62.8859 16.3034ZM58.8473 12.9567C57.4314 12.9567 56.9648 13.4233 56.9809 14.7588H60.6333C60.7137 13.4394 60.215 12.9567 58.8473 12.9567Z" fill="white"/>
<path d="M69.1776 19.7305H66.8285V8.46769H69.1776V19.7305Z" fill="white"/>
<path d="M72.9695 19.9075C71.3283 19.9075 70.1699 18.9421 70.1699 17.2688C70.1699 15.9011 71.0065 14.9519 72.9695 14.807L75.6886 14.614V13.9704C75.6886 13.0694 75.2864 12.8763 74.2406 12.8763C73.0499 12.8763 72.712 13.182 72.6799 14.0508H70.379C70.3629 12.3292 71.9397 11.219 74.3371 11.219C76.0748 11.219 77.9573 11.7983 77.9573 14.2117V19.7305H75.7691L75.7369 19.0065H75.222C74.852 19.5857 73.9188 19.9075 72.9695 19.9075ZM74.0314 18.2663C75.3829 18.2663 75.6886 17.8641 75.6886 16.7539V16.046L73.597 16.2229C72.712 16.3034 72.519 16.5126 72.519 17.2527C72.519 18.0733 72.9051 18.2663 74.0314 18.2663Z" fill="white"/>
<path d="M84.3492 19.9558C83.2229 19.9558 82.4345 19.457 82.0484 18.9099H81.5335L81.4852 19.7305H79.3131V8.46769H81.63V12.2005H82.1449C82.5632 11.6695 83.4321 11.219 84.4779 11.219C86.4087 11.219 87.8085 12.7636 87.8085 15.5472C87.8085 18.4916 86.2478 19.9558 84.3492 19.9558ZM83.4964 18.1054C85.1859 18.1054 85.3628 17.7354 85.3628 15.5794C85.3628 13.4233 85.1859 13.0533 83.4964 13.0533C81.7909 13.0533 81.6139 13.4233 81.6139 15.5794C81.6139 17.7354 81.7909 18.1054 83.4964 18.1054Z" fill="white"/>
<path d="M92.1546 19.9558C90.0308 19.9558 88.2609 18.9904 88.2931 17.124H90.5456C90.61 17.9767 90.8996 18.3629 92.2511 18.3629C93.5061 18.3629 93.7475 18.025 93.7475 17.4136C93.7475 16.9792 93.5222 16.7539 92.7177 16.6091L90.8674 16.2712C89.3872 15.9977 88.454 15.2415 88.454 13.9865C88.454 12.3775 89.902 11.219 92.1868 11.219C94.1497 11.219 95.9035 12.1844 95.8713 13.9704H93.6188C93.5544 13.1659 93.2648 12.7958 92.0902 12.7958C90.9157 12.7958 90.7065 13.1337 90.6904 13.6647C90.6904 14.0991 90.8674 14.3565 91.6558 14.5013L93.49 14.8231C95.0186 15.0967 96 15.8529 96 17.1401C96 18.749 94.5359 19.9558 92.1546 19.9558Z" fill="white"/>
</g>
<defs>
<clipPath id="clip0_841_41">
<rect width="96" height="20" fill="white"/>
</clipPath>
</defs>
</svg>
